P2
# CREATOR: GIMP PNM Filter Version 1.1
200 6
255
255
255
255
255
255
255
255
255
255
255
255
255
255
255
255
255
255
255
255
189
54
6
0
0
0
0
0
0
0
0
0
0
0
0
0
0
0
0
0
0
0
0
0
0
0
0
0
0
0
0
0
0
0
0
0
0
0
11
33
18
24
49
23
36
30
26
29
31
16
28
38
32
42
155
255
255
255
255
254
149
168
193
143
31
0
0
0
0
0
0
13
6
18
2
0
0
0
0
14
191
254
247
228
90
21
45
44
55
37
40
37
50
36
46
30
45
28
1
0
0
0
0
0
0
0
0
0
0
0
0
0
0
0
0
0
0
0
0
0
0
0
0
2
4
0
0
0
0
0
0
0
0
0
0
0
0
0
0
0
0
0
0
0
0
0
3
0
0
0
0
0
0
0
0
0
0
0
0
0
0
0
0
0
0
0
0
0
13
22
15
78
255
255
255
255
255
255
255
255
255
255
255
255
255
255
255
255
255
255
255
255
255
255
255
255
255
255
255
192
69
66
21
2
0
0
0
0
0
0
0
0
0
0
0
0
0
0
0
0
0
0
0
0
0
0
0
0
0
0
0
0
0
0
0
0
8
11
31
32
29
23
36
33
35
31
26
15
19
38
15
31
33
28
46
255
255
255
255
255
250
236
252
243
194
67
0
0
0
0
0
0
3
4
1
0
0
0
0
20
228
240
255
210
121
13
37
50
52
42
40
48
40
50
48
35
32
38
1
0
0
0
0
0
0
0
0
0
0
0
0
0
0
0
0
0
0
0
0
0
0
0
1
24
18
0
0
0
0
0
0
0
0
0
0
0
0
0
0
0
0
0
0
0
0
0
3
0
20
0
0
0
0
0
0
0
0
0
0
0
0
0
0
0
0
0
0
0
1
16
28
49
235
255
255
255
255
255
255
255
255
255
255
255
255
255
255
255
255
255
255
255
255
255
255
255
255
255
246
98
77
31
16
5
0
0
0
0
0
0
0
0
0
0
0
0
0
0
0
0
0
0
0
0
0
0
0
0
0
0
0
0
0
0
0
3
16
33
33
30
46
31
33
44
33
21
48
33
19
33
17
34
31
53
33
173
255
255
252
249
255
255
255
255
255
218
73
5
0
0
0
0
0
1
18
3
0
0
0
37
237
239
250
241
138
23
19
50
50
30
56
50
59
33
45
44
31
27
2
0
0
0
0
0
0
0
0
0
0
0
0
0
0
0
0
0
0
0
0
0
0
0
2
17
0
0
0
0
0
0
0
0
0
0
0
0
0
0
0
0
0
0
0
0
0
0
0
0
8
35
1
0
0
0
0
0
0
0
0
0
0
0
0
0
0
0
0
0
16
6
13
25
207
255
255
255
255
255
255
255
255
255
255
255
255
255
255
255
255
255
255
255
255
255
255
255
255
255
175
89
57
32
25
20
0
0
0
0
0
0
0
0
0
0
0
0
0
0
0
0
0
0
0
0
0
0
0
0
0
0
0
0
0
0
0
3
22
32
33
31
29
27
40
43
40
23
32
33
27
24
43
31
31
39
46
65
255
255
255
255
255
255
255
255
255
255
222
94
22
0
0
0
0
0
0
9
0
0
0
27
233
255
255
240
181
26
36
32
58
31
38
48
57
60
46
42
24
42
0
0
0
0
0
0
0
0
0
0
0
0
0
0
0
0
0
0
0
0
0
0
0
0
0
0
0
0
0
0
0
0
3
3
0
0
0
0
0
0
0
0
0
0
0
0
0
0
0
0
0
4
19
22
1
0
0
0
0
0
0
0
0
0
0
0
0
0
0
0
0
9
0
12
180
255
255
255
255
255
255
255
255
255
255
255
255
255
255
255
255
255
255
255
255
255
255
255
255
249
131
61
38
33
15
15
0
0
0
0
0
0
0
0
0
0
0
0
0
0
0
0
0
0
0
0
0
0
0
0
0
0
0
0
0
0
0
4
16
33
20
47
34
37
47
42
33
30
33
32
15
41
19
41
31
46
32
36
196
255
255
255
255
255
255
255
255
255
255
240
122
47
0
0
0
0
0
0
0
0
0
5
210
255
255
238
210
37
31
51
34
55
42
63
49
32
47
19
33
27
2
0
0
0
0
0
0
0
0
0
0
0
0
0
0
0
0
0
0
0
0
0
0
0
0
0
0
0
0
0
0
0
0
0
0
0
0
0
0
0
0
0
0
0
0
0
0
0
0
0
0
0
1
21
15
10
0
0
0
0
0
0
0
0
0
0
0
0
0
0
2
10
0
4
148
255
255
255
255
255
255
255
255
255
255
255
255
255
255
255
255
255
255
255
255
255
255
255
255
241
104
41
42
18
15
32
14
4
0
0
0
0
0
0
0
0
0
0
0
0
0
0
0
0
0
0
0
0
0
0
0
0
0
0
0
0
0
0
8
19
28
42
33
33
31
42
36
33
39
36
34
33
29
29
31
43
26
46
118
251
255
255
255
255
255
255
255
255
255
255
243
139
77
20
0
0
0
0
0
0
0
0
203
255
246
253
212
64
28
43
35
47
51
42
30
58
34
43
36
29
0
0
0
0
0
0
0
0
0
0
0
0
0
0
0
0
0
0
0
0
0
0
0
0
0
0
0
0
0
0
0
0
11
0
0
0
0
0
0
0
0
0
0
0
0
0
0
0
0
0
0
0
0
0
11
29
12
3
0
0
0
0
0
0
0
0
0
0
0
0
0
10
1
0
103
255
255
255
255
255
255
255
255
