P2
# CREATOR: GIMP PNM Filter Version 1.1
200 6
255
255
255
255
255
255
255
255
255
255
255
255
255
255
255
255
255
255
255
255
255
255
255
255
255
255
255
255
255
255
255
255
255
255
255
255
255
255
255
255
255
255
255
255
255
255
119
8
0
0
0
0
0
0
0
0
0
2
117
116
52
101
49
35
34
1
3
0
18
28
95
119
110
125
121
86
70
67
70
72
65
83
82
22
14
40
35
42
60
43
18
6
39
14
0
15
31
31
46
2
6
25
53
80
94
115
141
90
198
255
255
255
255
255
255
255
255
255
255
255
255
255
255
255
255
255
255
255
255
226
147
165
201
211
240
245
255
255
254
187
159
121
103
152
166
77
168
179
176
210
225
215
254
254
255
252
251
225
232
255
255
255
255
255
255
255
255
255
255
255
255
255
255
255
255
255
255
255
255
255
255
255
255
255
255
255
255
255
255
255
255
255
255
255
255
255
255
255
255
255
255
255
255
255
255
255
255
255
255
255
255
255
255
255
255
255
255
255
255
255
255
255
255
255
255
255
255
255
255
255
255
255
255
255
255
255
255
255
255
255
255
255
255
255
255
255
255
177
23
0
0
0
0
0
0
0
0
1
81
91
90
105
85
71
48
14
22
22
20
25
90
134
122
139
127
100
86
88
66
75
63
76
57
43
83
94
101
96
74
89
81
50
25
16
4
19
17
17
21
21
33
46
76
74
102
92
69
74
165
255
255
255
255
255
255
255
255
255
255
255
255
255
255
255
255
255
255
255
255
255
221
138
173
213
231
233
255
245
255
253
231
227
193
177
215
118
165
203
200
236
211
241
238
253
255
243
242
228
224
253
255
255
255
255
255
255
255
255
255
255
255
255
255
255
255
255
255
255
255
255
255
255
255
255
255
255
255
255
255
255
255
255
255
255
255
255
255
255
255
255
255
255
255
255
255
255
255
255
255
255
255
255
255
255
255
255
255
255
255
255
255
255
255
255
255
255
255
255
255
255
255
255
255
255
255
255
255
255
255
255
255
255
255
255
255
255
255
254
218
29
0
0
0
0
0
0
0
0
53
118
95
117
113
73
14
59
15
16
15
37
100
140
130
128
104
111
86
66
93
62
80
69
95
82
78
80
109
104
97
80
47
45
20
16
5
31
28
51
16
52
33
65
84
80
103
87
82
85
137
255
255
255
255
255
255
255
255
255
255
255
255
255
255
255
255
255
255
255
255
255
255
245
155
181
191
215
222
243
245
239
245
255
239
220
223
195
200
209
224
223
210
221
255
246
241
243
234
223
228
253
255
255
255
255
255
255
255
255
255
255
255
255
255
255
255
255
255
255
255
255
255
255
255
255
255
255
255
255
255
255
255
255
255
255
255
255
255
255
255
255
255
255
255
255
255
255
255
255
255
255
255
255
255
255
255
255
255
255
255
255
255
255
255
255
255
255
255
255
255
255
255
255
255
255
255
255
255
255
255
255
255
255
255
255
255
255
255
255
255
245
109
7
0
0
0
0
0
7
62
108
124
113
123
55
36
17
9
43
21
38
75
161
140
118
133
93
87
94
88
95
93
105
99
103
114
106
100
93
84
74
55
39
51
32
22
41
32
51
45
74
52
54
67
90
97
116
94
109
119
255
255
255
255
255
255
255
255
255
255
255
255
255
255
255
255
255
255
255
255
255
255
255
251
169
172
202
224
224
237
250
252
247
255
254
241
209
197
225
236
230
226
227
231
244
249
238
247
230
224
252
255
255
255
255
255
255
255
255
255
255
255
255
255
255
255
255
255
255
255
255
255
255
255
255
255
255
255
255
255
255
255
255
255
255
255
255
255
255
255
255
255
255
255
255
255
255
255
255
255
255
255
255
255
255
255
255
255
255
255
255
255
255
255
255
255
255
255
255
255
255
255
255
255
255
255
255
255
255
255
255
255
255
255
255
255
255
255
255
255
255
249
197
66
0
0
0
0
32
77
26
115
113
113
66
59
42
19
52
22
40
71
157
156
137
117
109
103
99
84
91
112
107
113
125
102
123
108
96
110
93
78
85
55
42
42
65
47
61
79
67
112
102
66
78
93
107
114
106
166
249
255
255
255
255
255
255
255
255
255
255
255
255
255
255
255
255
255
255
255
255
255
255
255
241
125
188
194
214
224
239
249
241
255
250
240
234
208
224
241
239
231
241
236
246
254
237
252
225
213
251
255
255
255
255
255
255
255
255
255
255
255
255
255
255
255
255
255
255
255
255
255
255
255
255
255
255
255
255
255
255
255
255
255
255
255
255
255
255
255
255
255
255
255
255
255
255
255
255
255
255
255
255
255
255
255
255
255
255
255
255
255
255
255
255
255
255
255
255
255
255
255
255
255
255
255
255
255
255
255
255
255
255
255
255
255
255
255
255
255
255
255
255
249
154
32
3
0
21
83
1
72
137
98
46
69
52
28
66
43
14
97
124
159
158
137
131
99
110
94
100
129
117
132
127
129
128
101
136
113
107
99
103
63
99
77
67
56
86
71
90
183
79
89
99
88
121
85
119
139
255
255
255
255
255
255
255
255
255
255
255
255
255
255
255
255
255
255
255
255
255
255
255
255
255
231
138
181
192
218
237
226
236
241
247
225
230
208
225
239
253
254
254
239
238
254
249
215
223
222
251
255
255
255
255
255
255
255
255
255
255
255
255
255
255
255
255
255
255
255
255
255
255
255
255
255
255
255
255
255
255
255
255
255
255
255
255
255
255
255
255
255
