P2
# CREATOR: GIMP PNM Filter Version 1.1
200 6
255
255
255
255
255
255
255
255
255
255
255
255
255
255
255
255
255
255
255
255
255
255
255
255
255
255
255
255
255
255
255
255
255
255
255
255
255
255
255
255
255
255
255
255
255
255
255
255
255
255
255
255
255
255
255
255
255
255
255
255
255
255
247
67
173
255
137
114
169
99
90
21
1
5
24
14
39
49
58
49
70
101
84
69
29
30
82
113
126
142
146
192
199
223
204
216
221
220
208
200
191
232
177
98
30
72
57
16
0
0
0
0
0
0
0
0
0
0
0
0
0
0
0
0
0
0
0
0
0
0
0
0
0
22
142
241
255
255
255
255
255
255
255
255
255
255
255
252
101
0
0
0
10
9
0
15
2
5
11
0
3
2
14
10
33
39
33
12
0
0
151
246
252
161
123
114
255
255
255
255
255
255
255
255
255
255
255
255
255
255
255
255
255
255
255
255
255
255
255
255
255
255
255
255
255
255
255
255
255
255
255
255
255
255
255
255
255
255
255
255
255
255
255
255
255
255
255
255
255
255
255
255
255
255
255
255
255
255
255
255
255
255
255
255
255
255
255
255
255
255
255
255
255
255
255
255
255
255
255
255
255
255
65
15
224
255
206
112
154
131
76
31
1
0
0
33
31
47
34
48
64
69
96
58
29
46
127
132
124
101
144
138
187
207
196
222
206
182
223
179
178
155
98
64
46
62
44
5
0
0
0
0
0
0
0
0
0
0
0
0
0
0
0
0
0
0
0
0
0
0
0
0
0
0
52
182
254
255
255
255
255
255
255
255
255
255
255
255
177
5
0
0
16
0
31
1
17
16
0
15
1
17
16
11
7
0
10
1
0
0
49
235
219
212
85
80
155
255
255
255
255
255
255
255
255
255
255
255
255
255
255
255
255
255
255
255
255
255
255
255
255
255
255
255
255
255
255
255
255
255
255
255
255
255
255
255
255
255
255
255
255
255
255
255
255
255
255
255
255
255
255
255
255
255
255
255
255
255
255
255
255
255
255
255
255
255
255
255
255
255
255
255
255
255
255
255
255
255
255
255
255
122
0
66
249
255
255
126
136
133
108
72
25
3
0
0
16
28
42
28
52
41
79
58
14
86
106
123
127
121
133
129
141
118
157
164
148
140
115
117
103
92
68
58
52
56
137
19
0
0
0
0
0
0
0
0
0
0
0
0
0
0
0
0
0
0
0
0
0
0
0
0
0
0
0
91
237
255
255
255
255
255
255
255
255
255
255
255
255
19
0
0
0
3
4
10
8
16
3
6
5
2
5
1
0
11
1
18
0
0
16
71
0
149
96
63
70
241
255
255
255
255
255
255
255
255
255
255
255
255
255
255
255
255
255
255
255
255
255
255
255
255
255
255
255
255
255
255
255
255
255
255
255
255
255
255
255
255
255
255
255
255
255
255
255
255
255
255
255
255
255
255
255
255
255
255
255
255
255
255
255
255
255
255
255
255
255
255
255
255
255
255
255
255
255
255
255
255
255
255
225
16
0
99
255
255
255
233
113
143
114
94
60
11
4
0
7
44
29
53
31
48
35
17
21
97
93
107
126
107
100
69
72
102
98
117
96
84
66
69
55
50
72
48
55
60
69
8
0
0
0
0
0
0
0
0
0
0
0
0
0
0
0
0
0
0
0
0
0
0
0
0
0
0
1
28
194
255
255
255
255
255
255
255
255
255
255
255
255
132
0
0
0
9
4
16
3
17
14
4
5
6
16
0
13
0
1
2
0
0
3
44
28
52
160
33
36
129
255
255
255
255
255
255
255
255
255
255
255
255
255
255
255
255
255
255
255
255
255
255
255
255
255
255
255
255
255
255
255
255
255
255
255
255
255
255
255
255
255
255
255
255
255
255
255
255
255
255
255
255
255
255
255
255
255
255
255
255
255
255
255
255
255
255
255
255
255
255
255
255
255
255
255
255
255
255
255
255
255
240
35
10
0
123
237
255
255
254
205
112
129
116
89
40
8
2
7
25
42
17
30
20
5
14
44
63
56
94
105
103
116
97
89
44
67
73
43
42
43
49
12
64
47
50
76
139
58
14
5
0
0
0
0
0
0
0
0
0
0
0
0
0
0
0
0
0
0
0
0
0
0
0
0
0
0
3
163
255
255
255
255
255
255
255
255
255
255
255
255
241
0
0
0
1
0
0
11
1
11
13
1
10
14
16
1
18
5
15
1
0
0
0
14
32
132
63
62
29
196
255
255
255
255
255
255
255
255
255
255
255
255
255
255
255
255
255
255
255
255
255
255
255
255
255
255
255
255
255
255
255
255
255
255
255
255
255
255
255
255
255
255
255
255
255
255
255
255
255
255
255
255
255
255
255
255
255
255
255
255
255
255
255
255
255
255
255
255
255
255
255
255
255
255
255
255
255
255
255
241
77
20
14
0
108
227
246
252
247
255
167
127
142
115
81
53
13
3
5
6
12
26
4
7
4
15
45
67
87
82
94
121
68
75
47
43
48
32
10
25
28
23
58
37
67
82
145
191
171
114
94
60
7
0
0
0
0
0
0
0
0
0
0
0
0
0
0
0
0
0
0
0
0
0
0
0
0
78
255
255
255
255
255
255
255
255
255
255
255
255
255
104
0
0
4
1
1
8
18
5
9
6
8
0
13
2
7
10
0
13
0
0
0
4
51
111
36
85
18
63
247
255
255
255
255
255
255
255
255
255
255
255
255
255
255
255
255
255
255
255
255
255
