P2
# CREATOR: GIMP PNM Filter Version 1.1
200 6
255
255
255
255
255
255
255
255
255
255
255
255
255
255
255
255
255
255
255
255
255
255
255
255
255
255
255
255
255
255
255
255
255
255
255
255
255
255
255
255
255
165
62
0
0
0
0
0
0
0
0
0
0
0
20
19
19
21
31
19
10
12
11
13
17
16
42
29
13
152
255
255
255
255
255
255
255
255
255
255
255
255
255
250
178
27
22
28
26
23
17
11
0
0
0
18
98
224
32
0
0
67
108
0
18
14
20
25
32
15
25
20
13
26
19
7
15
13
0
0
0
0
0
0
0
0
0
0
0
0
0
0
0
0
0
0
0
0
0
0
0
0
0
0
5
10
57
4
0
0
0
0
0
14
47
114
88
0
0
0
0
0
0
14
9
17
9
0
5
0
7
9
10
0
0
0
0
0
0
0
0
0
0
0
0
4
39
220
255
255
255
255
255
255
255
255
255
255
255
255
255
255
255
255
255
255
255
255
255
255
255
255
255
255
255
255
255
255
255
255
255
255
255
255
255
255
255
255
255
255
255
255
255
255
255
255
255
255
255
235
57
0
0
0
0
0
0
0
0
0
0
0
0
0
14
34
20
32
15
15
33
23
0
5
28
46
15
0
20
68
255
255
255
255
255
255
255
255
255
255
255
255
255
255
255
229
77
14
16
7
15
21
10
0
0
69
176
235
0
0
0
10
133
2
35
18
32
13
47
31
45
32
42
18
30
14
32
8
0
0
0
0
0
0
0
0
0
0
0
0
0
0
0
0
0
0
0
0
0
0
0
0
0
0
0
6
3
0
0
0
7
91
129
107
50
41
3
0
0
0
0
0
0
6
3
2
7
15
16
17
0
8
17
0
0
0
0
0
0
0
0
0
0
0
0
16
2
170
255
255
255
255
255
255
255
255
255
255
255
255
255
255
255
255
255
255
255
255
255
255
255
255
255
255
255
255
255
255
255
255
255
255
255
255
255
255
255
255
255
255
255
255
255
255
255
255
255
214
106
0
0
0
0
0
0
0
0
0
0
0
0
0
0
0
14
30
13
33
22
26
23
7
17
21
20
24
9
20
16
23
198
255
255
255
255
255
255
255
255
255
255
255
255
255
255
255
255
158
70
26
29
26
31
0
58
132
215
154
0
0
0
0
131
49
7
27
46
38
20
29
33
32
30
30
26
31
22
13
0
0
0
0
0
0
0
0
0
0
0
0
0
0
0
0
0
0
0
0
0
0
0
0
0
0
0
0
0
0
17
48
82
27
1
0
0
0
0
0
0
0
0
0
0
2
10
6
0
0
0
0
11
0
6
0
0
0
0
0
0
0
0
0
0
0
0
0
31
80
255
255
255
255
255
255
255
255
255
255
255
255
255
255
255
255
255
255
255
255
255
255
255
255
255
255
255
255
255
255
255
255
255
255
255
255
255
255
255
255
255
255
255
255
255
255
255
239
81
15
0
0
0
0
0
0
0
0
0
0
0
0
0
0
0
0
14
21
20
19
27
27
31
21
16
16
21
15
8
13
32
30
73
255
255
255
255
255
255
255
255
255
255
255
255
255
255
255
230
235
246
233
164
63
48
0
56
161
213
50
0
0
0
0
73
66
18
19
28
25
46
41
44
30
16
35
28
17
18
20
0
0
0
0
0
0
0
0
0
0
0
0
0
0
0
0
0
0
0
0
0
0
0
0
0
0
0
0
0
3
22
10
0
0
0
0
0
0
0
0
0
0
0
0
0
1
0
4
16
0
23
0
0
0
2
12
0
0
0
0
0
0
0
0
0
0
0
0
9
0
247
255
255
255
255
255
255
255
255
255
255
255
255
255
255
255
255
255
255
255
255
255
255
255
255
255
255
255
255
255
255
255
255
255
255
255
255
255
255
255
255
255
255
255
253
220
94
0
0
0
0
0
0
0
0
0
0
0
0
0
0
0
0
0
0
0
16
31
27
18
22
31
19
22
16
19
15
4
26
18
21
24
37
197
255
255
255
255
255
255
255
255
255
255
255
255
255
231
169
206
242
239
226
233
79
17
39
189
196
9
0
0
0
0
15
57
18
31
36
40
34
28
40
35
42
17
45
26
30
19
0
0
0
0
0
0
0
0
0
0
0
0
0
0
0
0
0
0
0
0
0
0
0
0
0
0
0
0
0
0
0
0
0
0
0
0
0
0
0
1
19
0
0
0
0
0
0
0
0
2
1
3
0
1
0
0
0
0
0
0
0
0
0
0
0
0
0
0
10
18
105
255
255
255
255
255
255
255
255
255
255
255
255
255
255
255
255
255
255
255
255
255
255
255
255
255
255
255
255
255
255
255
255
255
255
255
255
255
255
255
255
255
255
196
85
1
0
0
0
0
0
0
0
0
0
0
0
0
0
0
0
0
0
0
0
0
43
25
19
33
23
25
32
18
15
20
18
28
17
23
18
30
42
123
253
255
255
255
255
255
255
255
255
255
255
255
221
141
200
197
241
230
226
216
167
38
104
207
120
6
0
0
0
32
52
12
27
22
39
37
38
35
23
50
36
35
28
19
25
19
0
0
0
0
0
0
0
0
0
0
0
0
0
0
0
0
0
0
0
0
0
0
0
0
0
0
0
0
0
0
0
0
0
0
0
0
0
0
0
0
0
0
0
0
0
0
0
0
10
18
14
16
0
9
11
0
0
0
0
0
0
0
0
0
0
0
0
0
1
29
25
218
255
255
255
255
255
255
255
255
255
255
255
