P2
# CREATOR: GIMP PNM Filter Version 1.1
200 6
255
255
255
255
255
255
255
255
255
255
255
255
255
255
255
255
255
255
255
255
255
255
255
255
255
255
255
255
255
255
255
255
255
255
255
255
255
255
255
255
242
53
0
0
0
0
0
0
0
0
0
0
0
0
0
0
0
0
0
0
0
0
0
0
0
0
0
0
0
0
16
24
15
29
15
32
14
4
0
0
0
0
0
0
0
0
0
0
0
0
0
6
31
29
45
32
30
18
13
0
0
0
0
1
2
0
0
0
11
79
143
198
229
246
253
255
255
255
255
255
245
172
151
171
194
189
239
225
252
255
237
223
173
175
191
222
243
172
175
177
233
179
208
226
240
239
244
169
44
45
86
155
206
237
251
254
249
191
239
255
255
255
255
255
255
255
255
255
255
255
255
255
255
255
255
255
255
255
255
255
255
255
255
255
255
255
255
255
255
255
255
255
255
255
255
255
255
255
255
255
255
255
255
255
255
255
255
255
255
255
255
255
255
255
255
255
255
255
255
255
255
255
255
255
255
255
255
255
255
255
255
255
255
255
255
255
255
255
255
255
255
226
19
0
0
0
0
0
0
0
0
0
0
0
0
0
0
0
0
0
0
0
0
0
0
0
0
0
0
12
28
24
45
32
21
15
4
18
17
0
0
0
0
0
0
0
0
0
4
5
11
52
63
84
69
96
67
91
77
106
72
83
56
44
38
36
71
86
140
242
255
255
255
255
255
255
255
255
255
255
255
248
228
175
152
188
218
239
237
250
240
225
189
189
213
223
242
125
165
189
225
163
203
217
222
235
201
61
14
31
150
217
255
255
255
251
234
230
235
255
255
255
255
255
255
255
255
255
255
255
255
255
255
255
255
255
255
255
255
255
255
255
255
255
255
255
255
255
255
255
255
255
255
255
255
255
255
255
255
255
255
255
255
255
255
255
255
255
255
255
255
255
255
255
255
255
255
255
255
255
255
255
255
255
255
255
255
255
255
255
255
255
255
255
255
255
255
255
255
255
255
255
194
14
0
0
0
0
0
0
0
0
0
0
0
0
0
0
43
54
21
5
0
0
0
0
0
0
0
10
29
43
53
62
27
15
29
43
36
0
0
0
0
0
0
0
2
22
27
51
49
72
101
67
92
84
49
57
87
71
64
68
39
44
21
33
41
99
164
255
255
255
255
255
255
255
255
255
255
255
255
255
255
255
234
160
181
216
236
238
233
222
223
182
228
224
249
70
122
163
208
159
159
207
224
210
82
28
46
66
158
231
238
255
255
244
235
228
243
255
255
255
255
255
255
255
255
255
255
255
255
255
255
255
255
255
255
255
255
255
255
255
255
255
255
255
255
255
255
255
255
255
255
255
255
255
255
255
255
255
255
255
255
255
255
255
255
255
255
255
255
255
255
255
255
255
255
255
255
255
255
255
255
255
255
255
255
255
255
255
255
255
255
255
255
255
255
255
255
255
255
255
255
139
3
0
0
0
0
0
0
0
0
0
0
0
0
2
95
85
53
66
2
0
0
0
0
0
0
24
49
67
52
65
55
33
58
36
45
33
17
21
0
0
0
18
25
20
51
47
62
80
80
79
53
62
55
59
63
45
61
37
0
0
19
32
85
129
221
255
255
255
255
255
255
255
255
255
255
255
255
255
255
255
255
253
182
167
200
224
240
238
225
145
188
222
167
139
136
177
200
156
134
192
205
183
68
85
101
115
158
213
255
237
254
255
234
224
246
255
255
255
255
255
255
255
255
255
255
255
255
255
255
255
255
255
255
255
255
255
255
255
255
255
255
255
255
255
255
255
255
255
255
255
255
255
255
255
255
255
255
255
255
255
255
255
255
255
255
255
255
255
255
255
255
255
255
255
255
255
255
255
255
255
255
255
255
255
255
255
255
255
255
255
255
255
255
255
255
255
255
255
255
255
136
0
0
0
0
0
0
0
0
0
0
0
0
2
107
74
58
60
40
0
0
0
0
0
0
23
66
84
89
74
76
56
49
43
19
25
23
4
4
25
46
49
63
66
60
73
58
40
68
48
46
39
58
58
39
27
16
0
0
0
21
23
119
129
221
255
255
255
255
255
255
255
255
255
255
255
255
255
255
255
255
255
251
218
157
178
225
198
227
173
142
160
198
239
168
192
182
172
128
164
181
179
85
121
155
179
191
220
239
253
255
253
249
231
235
255
255
255
255
255
255
255
255
255
255
255
255
255
255
255
255
255
255
255
255
255
255
255
255
255
255
255
255
255
255
255
255
255
255
255
255
255
255
255
255
255
255
255
255
255
255
255
255
255
255
255
255
255
255
255
255
255
255
255
255
255
255
255
255
255
255
255
255
255
255
255
255
255
255
255
255
255
255
255
255
255
255
255
255
255
254
142
0
0
0
0
0
0
0
0
0
0
0
2
103
81
46
56
79
0
0
0
0
0
0
8
84
112
110
82
97
64
93
33
74
45
46
21
55
78
41
49
21
9
2
30
34
77
25
17
8
43
49
50
30
0
0
0
7
11
72
153
226
110
219
255
255
255
255
255
255
255
255
255
255
255
255
255
255
255
255
255
255
255
239
168
195
206
229
224
233
242
254
253
203
192
205
184
135
176
178
131
126
172
176
174
225
235
238
246
255
255
245
238
235
255
255
255
255
255
255
255
255
255
255
255
255
255
255
255
255
255
255
255
255
255
255
255
255
255
255
255
255
255
255
255
255
255
255
255
255
255
255
255
255
255
255
