P2
# CREATOR: GIMP PNM Filter Version 1.1
200 6
255
255
255
255
255
255
255
255
255
255
255
255
255
255
255
255
255
255
255
255
255
255
255
255
255
255
255
255
255
255
255
255
255
255
255
255
255
255
255
255
255
255
255
255
255
255
255
255
255
255
255
255
255
255
239
170
86
57
77
13
24
120
125
84
32
75
39
72
30
24
56
102
150
161
178
142
112
111
120
108
128
123
130
158
137
137
127
116
128
125
124
106
99
106
78
79
67
102
124
111
158
156
91
112
114
112
121
106
174
255
255
255
255
255
255
255
255
255
255
255
255
255
255
255
255
255
255
255
255
255
255
255
255
255
255
226
147
151
181
204
211
234
219
239
219
237
225
226
241
239
242
251
237
238
255
239
240
222
210
251
255
248
255
255
255
255
255
255
255
255
255
255
255
255
255
255
255
255
255
255
255
255
255
255
255
255
255
255
255
255
255
255
255
255
255
255
255
255
255
255
255
255
255
255
255
255
255
255
255
255
255
255
255
255
255
255
255
255
255
255
255
255
255
255
255
255
255
255
255
255
255
255
255
255
255
255
255
255
255
255
255
255
255
255
255
255
255
255
255
255
255
255
255
255
255
255
254
252
117
6
15
88
96
114
82
33
68
32
70
17
36
90
110
154
177
159
147
112
126
110
128
133
159
143
143
159
155
130
145
145
129
129
104
112
97
66
101
123
128
141
143
202
120
128
128
128
128
123
202
255
255
255
255
255
255
255
255
255
255
255
255
255
255
255
255
255
255
255
255
255
255
255
255
255
255
255
245
137
142
176
188
207
226
241
223
212
203
209
224
223
228
226
255
238
240
229
247
222
205
219
255
244
255
255
255
255
255
255
255
255
255
255
255
255
255
255
255
255
255
255
255
255
255
255
255
255
255
255
255
255
255
255
255
255
255
255
255
255
255
255
255
255
255
255
255
255
255
255
255
255
255
255
255
255
255
255
255
255
255
255
255
255
255
255
255
255
255
255
255
255
255
255
255
255
255
255
255
255
255
255
255
255
255
255
255
255
255
255
255
255
255
255
255
255
255
255
255
254
157
25
0
42
102
91
104
59
45
49
37
32
39
65
88
124
159
165
160
132
127
133
134
135
135
171
147
176
171
166
154
156
147
133
114
100
78
68
104
124
145
159
159
152
148
126
135
159
155
128
219
255
255
255
255
255
255
255
255
255
255
255
255
255
255
255
255
255
255
255
255
255
255
255
255
255
255
255
255
255
199
149
136
193
189
201
229
197
170
201
219
229
235
235
240
243
229
220
204
230
189
199
208
242
246
224
253
255
255
255
255
255
255
255
255
255
255
255
255
255
255
255
255
255
255
255
255
255
255
255
255
255
255
255
255
255
255
255
255
255
255
255
255
255
255
255
255
255
255
255
255
255
255
255
255
255
255
255
255
255
255
255
255
255
255
255
255
255
255
255
255
255
255
255
255
255
255
255
255
255
255
255
255
255
255
255
255
255
255
255
255
255
255
255
255
255
255
255
255
254
167
27
0
6
102
107
94
111
75
61
50
32
45
66
53
103
127
159
148
156
139
143
145
148
149
150
174
160
181
181
142
182
134
129
92
77
79
71
113
133
156
159
165
152
163
164
148
142
156
149
205
255
255
255
255
255
255
255
255
255
255
255
255
255
255
255
255
255
255
255
255
255
255
255
255
255
255
255
255
255
255
241
199
131
161
168
210
168
166
152
192
193
218
213
216
234
227
224
202
191
202
210
209
225
216
220
242
255
255
255
255
255
255
255
255
255
255
255
255
255
255
255
255
255
255
255
255
255
255
255
255
255
255
255
255
255
255
255
255
255
255
255
255
255
255
255
255
255
255
255
255
255
255
255
255
255
255
255
255
255
255
255
255
255
255
255
255
255
255
255
255
255
255
255
255
255
255
255
255
255
255
255
255
255
255
255
255
255
255
255
255
255
255
255
255
255
255
255
255
254
179
49
0
0
41
120
98
102
122
68
47
64
15
38
62
66
98
126
146
125
162
151
129
158
151
174
168
191
169
170
190
170
133
119
84
114
98
99
109
148
178
183
182
175
164
211
150
164
149
155
217
255
255
255
255
255
255
255
255
255
255
255
255
255
255
255
255
255
255
255
255
255
255
255
255
255
255
255
255
255
255
255
255
255
147
120
153
155
143
140
148
188
161
215
193
215
222
219
216
221
211
204
218
210
206
211
156
255
255
255
255
255
255
255
255
255
255
255
255
255
255
255
255
255
255
255
255
255
255
255
255
255
255
255
255
255
255
255
255
255
255
255
255
255
255
255
255
255
255
255
255
255
255
255
255
255
255
255
255
255
255
255
255
255
255
255
255
255
255
255
255
255
255
255
255
255
255
255
255
255
255
255
255
255
255
255
255
255
255
255
255
255
255
255
255
255
255
255
255
255
205
60
4
0
5
65
134
116
106
92
48
42
33
51
58
60
77
96
139
102
126
143
156
144
153
168
179
174
184
185
183
162
145
103
113
130
138
111
146
180
201
196
209
177
177
224
157
156
170
166
212
255
255
255
255
255
255
255
255
255
255
255
255
255
255
255
255
255
255
255
255
255
255
255
255
255
255
255
255
255
255
255
255
255
250
175
113
154
144
145
143
137
150
189
190
189
187
193
192
187
232
219
213
214
181
216
170
180
255
255
255
255
255
255
255
255
255
255
255
255
255
255
255
255
255
255
255
255
255
255
255
255
255
255
255
255
255
255
255
255
255
255
255
