P2
# CREATOR: GIMP PNM Filter Version 1.1
200 6
255
255
255
255
255
255
255
255
255
255
255
255
255
255
255
255
255
255
255
255
255
255
255
255
255
255
255
255
255
255
255
255
255
255
255
255
255
255
255
255
255
255
255
255
255
255
255
255
255
255
255
255
255
255
255
255
255
255
233
110
21
0
0
4
84
128
113
98
44
49
31
33
31
62
59
65
89
124
127
140
129
133
157
160
178
190
203
192
173
158
176
107
121
162
147
127
147
181
207
219
193
208
195
224
162
156
174
156
220
255
255
255
255
255
255
255
255
255
255
255
255
255
255
255
255
255
255
255
255
255
255
255
255
255
255
255
255
255
255
255
255
255
255
255
173
101
141
162
149
172
159
146
175
173
188
209
233
237
215
221
224
216
176
237
235
120
255
255
255
255
255
255
255
255
255
255
255
255
255
255
255
255
255
255
255
255
255
255
255
255
255
255
255
255
255
255
255
255
255
255
255
255
255
255
255
255
255
255
255
255
255
255
255
255
255
255
255
255
255
255
255
255
255
255
255
255
255
255
255
255
255
255
255
255
255
255
255
255
255
255
255
255
255
255
255
255
255
255
255
255
255
255
255
255
255
255
255
255
240
140
73
6
52
0
0
102
113
109
60
22
39
26
66
52
55
60
60
96
131
128
128
151
156
175
193
196
188
181
180
154
194
111
119
97
83
84
136
150
196
174
172
191
181
163
129
139
161
172
220
255
255
255
255
255
255
255
255
255
255
255
255
255
255
255
255
255
255
255
255
255
255
255
255
255
255
255
255
255
255
255
255
255
255
255
255
85
129
126
149
159
155
193
181
206
216
216
227
234
224
212
205
190
154
255
255
133
197
255
255
255
255
255
255
255
255
255
255
255
255
255
255
255
255
255
255
255
255
255
255
255
255
255
255
255
255
255
255
255
255
255
255
255
255
255
255
255
255
255
255
255
255
255
255
255
255
255
255
255
255
255
255
255
255
255
255
255
255
255
255
255
255
255
255
255
255
255
255
255
255
255
255
255
255
255
255
255
255
255
255
255
255
255
255
255
255
255
255
255
250
162
99
33
37
0
0
36
86
112
82
39
21
43
44
53
34
36
67
77
109
106
128
131
169
162
203
196
202
160
171
198
181
157
132
101
84
42
50
81
115
152
152
148
124
69
88
127
163
166
220
255
255
255
255
255
255
255
255
255
255
255
255
255
255
255
255
255
255
255
255
255
255
255
255
255
255
255
255
255
255
255
255
255
255
255
255
15
76
119
135
161
125
164
167
180
176
207
204
223
217
224
200
197
214
255
255
196
130
253
255
255
255
255
255
255
255
255
255
255
255
255
255
255
255
255
255
255
255
255
255
255
255
255
255
255
255
255
255
255
255
255
255
255
255
255
255
255
255
255
255
255
255
255
255
255
255
255
255
255
255
255
255
255
255
255
255
255
255
255
255
255
255
255
255
255
255
255
255
255
255
255
255
255
255
255
255
255
255
255
255
255
255
255
255
255
255
255
255
255
246
173
110
66
14
0
13
91
29
47
46
26
50
47
50
32
32
32
37
75
86
111
127
140
160
164
175
190
179
172
177
192
191
156
174
124
94
99
42
40
44
59
56
67
19
65
81
124
129
148
216
255
255
255
255
255
255
255
255
255
255
255
255
255
255
255
255
255
255
255
255
255
255
255
255
255
255
255
255
255
255
255
255
255
255
255
255
94
52
113
129
142
129
124
173
164
192
189
201
223
227
207
199
191
255
255
255
223
67
228
255
255
255
255
255
255
255
255
255
255
255
255
255
255
255
255
255
255
255
255
255
255
255
255
255
255
255
255
255
255
255
255
255
255
255
255
255
255
255
255
255
255
255
255
255
255
255
255
255
255
255
255
255
255
255
255
255
255
255
255
255
255
255
255
255
255
255
255
255
255
255
255
255
255
255
255
255
255
255
255
255
255
255
255
255
255
255
255
255
255
255
197
84
90
20
0
100
81
66
67
8
42
47
24
47
52
29
33
45
60
85
83
120
137
165
188
189
175
163
181
177
177
154
128
124
93
62
110
68
35
20
9
42
28
62
73
80
88
101
159
171
247
255
255
255
255
255
255
255
255
255
255
255
255
255
255
255
255
255
255
255
255
255
255
255
255
255
255
255
255
255
255
255
255
255
255
255
178
186
65
123
127
151
136
144
164
190
186
207
196
218
201
188
239
255
255
255
237
92
128
255
255
255
255
255
255
255
255
255
255
255
255
255
255
255
255
255
255
255
255
255
255
255
255
255
255
255
255
255
255
255
255
255
255
255
255
255
255
255
255
255
255
255
255
255
255
255
255
255
255
255
255
255
255
255
255
255
255
255
255
255
255
255
255
255
255
255
255
255
255
255
255
255
255
255
255
255
255
255
255
255
255
255
255
255
255
255
255
255
255
255
245
92
53
95
0
57
55
99
78
23
28
33
31
33
30
13
33
38
49
65
62
114
135
159
165
185
160
173
139
152
155
114
109
98
81
71
107
87
51
60
32
62
58
59
63
86
85
84
158
159
249
255
255
255
255
255
255
255
255
255
255
255
255
255
255
255
255
255
255
255
255
255
255
255
255
255
255
255
255
255
255
255
255
255
255
255
231
84
220
116
125
151
135
130
145
172
176
186
223
216
189
242
255
255
255
255
251
131
65
215
255
255
255
255
255
255
255
255
255
255
255
255
255
255
255
255
255
255
255
255
255
255
255
255
255
255
255
255
255
255
255
255
