P2
# CREATOR: GIMP PNM Filter Version 1.1
200 6
255
255
255
255
255
255
255
255
255
255
255
255
255
255
255
255
255
255
255
255
255
255
255
255
255
255
255
255
255
255
255
255
255
255
255
255
255
255
255
255
255
255
255
255
255
255
255
255
255
255
255
255
255
255
255
255
255
255
255
255
176
23
41
47
63
79
129
146
49
50
14
34
32
13
51
22
46
39
79
58
95
108
155
161
165
167
138
106
121
108
105
96
69
97
65
70
119
52
87
63
76
61
52
76
79
62
86
133
156
255
255
255
255
255
255
255
255
255
255
255
255
255
255
255
255
255
255
255
255
255
255
255
255
255
255
255
255
255
255
255
255
255
255
255
255
251
72
52
196
181
150
170
142
147
161
169
177
168
176
250
255
255
255
255
255
252
183
20
107
255
255
255
255
255
255
255
255
255
255
255
255
255
255
255
255
255
255
255
255
255
255
255
255
255
255
255
255
255
255
255
255
255
255
255
255
255
255
255
255
255
255
255
255
255
255
255
255
255
255
255
255
255
255
255
255
255
255
255
255
255
255
255
255
255
255
255
255
255
255
255
255
255
255
255
255
255
255
255
255
255
255
255
255
255
255
255
255
255
255
255
241
93
14
17
78
221
53
135
109
54
48
24
23
30
22
39
44
64
69
80
86
86
146
172
140
106
88
82
86
66
66
113
73
99
71
98
76
71
68
45
65
44
77
97
75
77
72
122
154
190
197
202
225
248
241
255
255
255
255
255
255
255
255
255
255
255
255
255
255
255
255
255
255
255
255
255
255
255
255
255
255
255
255
255
255
255
175
0
31
133
183
236
225
230
239
188
129
170
248
255
255
255
255
255
255
253
208
39
47
237
254
244
254
255
255
255
255
255
255
255
255
255
255
255
255
255
255
255
255
255
255
255
255
255
255
255
255
255
255
255
255
255
255
255
255
255
255
255
255
255
255
255
255
255
255
255
255
255
255
255
255
255
255
255
255
255
255
255
255
255
255
255
255
255
255
255
255
255
255
255
255
255
255
255
255
255
255
255
255
255
255
255
255
255
255
255
255
255
255
255
255
248
105
15
18
13
0
138
119
71
60
32
1
25
22
32
57
48
79
62
63
110
93
111
91
79
67
83
45
66
48
107
94
48
73
92
79
92
80
65
65
68
100
111
73
34
68
107
98
0
0
0
0
0
0
16
26
47
85
93
151
184
211
246
249
252
253
254
255
255
255
255
255
255
255
255
255
255
255
255
255
255
255
255
255
255
245
21
3
59
65
121
210
248
255
250
190
211
255
255
255
255
255
255
255
252
204
38
13
214
255
220
248
255
255
255
255
255
255
255
255
255
255
255
255
255
255
255
255
255
255
255
255
255
255
255
255
255
255
255
255
255
255
255
255
255
255
255
255
255
255
255
255
255
255
255
255
255
255
255
255
255
255
255
255
255
255
255
255
255
255
255
255
255
255
255
255
255
255
255
255
255
255
255
255
255
255
255
255
255
255
255
255
255
255
255
255
255
255
255
255
255
255
215
190
171
0
128
137
69
33
9
8
0
44
39
50
48
53
41
69
91
98
81
43
64
60
64
49
61
66
93
99
100
82
68
102
115
103
119
62
72
68
74
35
13
51
111
28
0
0
0
0
0
0
0
0
0
0
0
0
0
0
0
28
72
104
126
132
136
147
187
255
255
255
255
255
255
255
255
255
255
255
255
255
255
255
96
0
0
16
53
109
169
186
224
236
255
255
255
255
255
255
255
255
246
207
45
0
169
255
255
199
251
255
255
255
255
255
255
255
255
255
255
255
255
255
255
255
255
255
255
255
255
255
255
255
255
255
255
255
255
255
255
255
255
255
255
255
255
255
255
255
255
255
255
255
255
255
255
255
255
255
255
255
255
255
255
255
255
255
255
255
255
255
255
255
255
255
255
255
255
255
255
255
255
255
255
255
255
255
255
255
255
255
255
255
255
255
255
255
255
255
255
255
196
36
139
148
86
36
24
0
28
14
50
40
47
47
57
67
93
74
88
37
35
69
52
31
33
32
57
69
66
76
79
80
67
83
38
63
76
126
110
59
23
84
70
1
0
0
0
0
0
0
0
0
0
0
0
0
0
0
0
0
0
0
0
0
0
0
7
98
254
255
255
255
255
255
255
255
255
255
255
255
255
255
194
0
0
0
13
0
16
24
55
63
167
229
255
255
255
255
255
245
225
241
57
0
98
255
255
180
173
255
255
255
255
255
255
255
255
255
255
255
255
255
255
255
255
255
255
255
255
255
255
255
255
255
255
255
255
255
255
255
255
255
255
255
255
255
255
255
255
255
255
255
255
255
255
255
255
255
255
255
255
255
255
255
255
255
255
255
255
255
255
255
255
255
255
255
255
255
255
255
255
255
255
255
255
255
255
255
255
255
255
255
255
255
255
255
255
255
240
195
242
72
122
150
107
37
9
0
0
28
28
38
32
53
33
82
82
107
72
52
32
41
67
76
106
101
121
103
117
98
112
112
141
139
166
171
181
194
125
43
76
79
33
0
0
0
0
0
0
0
0
0
0
0
0
0
0
0
0
0
0
0
0
0
0
0
0
5
131
245
255
255
255
255
255
255
255
255
255
255
255
255
243
36
0
0
0
15
7
25
13
3
8
17
21
83
148
160
188
219
215
196
38
0
0
252
255
255
128
167
245
255
255
255
255
255
255
255
255
255
255
255
255
255
255
255
255
255
255
255
255
255
255
255
255
255
