P2
# CREATOR: GIMP PNM Filter Version 1.1
200 6
255
255
255
255
255
255
255
255
255
255
255
255
255
255
255
255
255
255
255
255
255
255
255
255
255
255
255
255
255
255
255
255
255
255
255
255
255
255
255
255
255
255
255
255
255
255
255
255
255
255
255
255
255
255
255
255
255
255
89
14
33
12
0
72
203
243
246
255
230
255
151
126
128
125
89
61
23
0
15
0
16
9
0
31
4
30
61
73
82
90
82
64
68
47
46
63
50
42
16
44
30
52
66
33
75
160
191
183
207
170
144
171
107
81
5
0
0
0
0
0
0
0
0
0
0
0
0
0
0
0
0
0
0
0
0
0
48
255
255
255
255
255
255
255
255
255
255
255
255
255
187
6
0
0
0
4
6
0
17
1
17
16
16
10
14
1
18
0
13
0
0
0
0
0
36
31
72
44
4
172
131
255
255
255
255
255
255
255
255
255
255
255
255
255
255
255
255
255
255
255
255
255
255
255
255
255
255
255
255
255
255
255
255
255
255
255
255
255
255
255
255
255
255
255
255
255
255
255
255
255
255
255
255
255
255
255
255
255
255
255
255
255
255
255
255
255
255
255
255
255
255
255
255
255
255
255
255
122
0
0
33
12
6
32
178
219
244
250
250
247
255
166
115
129
137
100
54
17
4
4
11
26
7
27
21
50
43
62
62
50
58
67
71
93
82
101
45
102
60
47
50
23
54
61
80
152
142
104
120
140
174
149
149
149
126
15
0
0
0
0
0
0
0
0
0
0
0
0
0
0
0
0
0
0
0
0
0
255
255
255
255
255
255
255
255
255
255
255
255
255
238
38
0
0
0
0
7
12
14
11
15
3
4
6
8
0
3
12
0
1
0
0
0
0
32
25
52
62
1
97
142
119
255
255
255
255
255
255
255
255
255
255
255
255
255
255
255
255
255
255
255
255
255
255
255
255
255
255
255
255
255
255
255
255
255
255
255
255
255
255
255
255
255
255
255
255
255
255
255
255
255
255
255
255
255
255
255
255
255
255
255
255
255
255
255
255
255
255
255
255
255
255
255
255
255
254
122
2
4
0
9
24
4
5
104
214
238
239
240
238
255
250
180
129
149
132
106
69
32
1
0
42
21
18
30
22
31
54
36
49
35
74
48
109
102
86
71
83
68
54
60
47
44
49
64
63
50
54
61
47
49
106
145
147
144
74
0
0
0
0
0
0
0
0
0
0
0
0
0
0
0
0
0
0
0
0
0
149
100
246
255
255
255
255
255
255
255
255
255
255
255
123
0
0
0
0
10
0
10
12
4
19
3
0
3
13
14
0
16
4
0
0
0
2
5
53
1
41
0
57
189
39
208
255
255
255
255
255
255
255
255
255
255
255
255
255
255
255
255
255
255
255
255
255
255
255
255
255
255
255
255
255
255
255
255
255
255
255
255
255
255
255
255
255
255
255
255
255
255
255
255
255
255
255
255
255
255
255
255
255
255
255
255
255
255
255
255
255
255
255
255
255
255
255
255
184
14
1
0
0
3
18
0
9
23
194
218
239
239
251
239
255
255
165
150
128
140
104
83
33
0
21
6
2
24
31
31
43
46
58
37
57
69
79
98
82
64
104
65
68
48
33
48
30
18
0
0
14
12
35
36
14
48
104
128
142
0
0
0
0
0
0
0
0
0
0
0
0
0
0
0
0
0
0
0
0
0
150
65
10
206
253
255
255
255
255
255
255
255
255
255
218
0
0
0
0
0
15
6
0
18
5
17
17
3
14
0
1
4
4
0
0
0
12
12
48
89
15
0
18
188
92
27
255
255
255
255
255
255
255
255
255
255
255
255
255
255
255
255
255
255
255
255
255
255
255
255
255
255
255
255
255
255
255
255
255
255
255
255
255
255
255
255
255
255
255
255
255
255
255
255
255
255
255
255
255
255
255
255
255
255
255
255
255
255
255
255
255
255
255
255
255
255
255
210
20
0
8
6
0
1
8
0
2
0
105
223
238
241
242
238
247
255
250
188
122
130
115
105
84
23
0
5
36
11
15
22
20
40
28
50
25
30
65
71
84
59
79
74
46
34
35
27
7
0
0
0
0
0
0
6
17
18
27
47
76
42
0
0
0
0
0
0
0
0
0
0
0
0
0
0
0
0
0
0
0
0
73
191
126
136
173
190
251
255
255
255
255
255
255
255
255
67
0
0
0
0
0
10
16
15
13
17
6
17
0
13
9
9
9
8
0
0
0
0
72
64
8
0
0
127
169
0
117
255
255
255
255
255
255
255
255
255
255
255
255
255
255
255
255
255
255
255
255
255
255
255
255
255
255
255
255
255
255
255
255
255
255
255
255
255
255
255
255
255
255
255
255
255
255
255
255
255
255
255
255
255
255
255
255
255
255
255
255
255
255
255
255
255
255
255
255
255
109
23
2
4
15
0
0
0
11
0
0
28
12
184
238
251
225
254
236
254
255
255
197
106
109
127
102
77
30
0
35
23
0
0
13
20
42
34
20
32
50
42
36
34
47
35
43
17
16
1
0
0
0
0
0
0
0
0
0
1
0
1
2
18
0
0
0
0
0
0
0
0
0
0
0
0
0
0
0
0
0
0
0
0
5
51
152
148
79
86
192
255
255
255
255
255
255
255
255
203
0
0
0
0
0
11
1
0
11
0
17
2
14
9
0
6
4
16
0
0
0
0
38
40
0
0
0
84
175
17
15
207
255
255
255
255
255
255
255
255
255
255
255
255
255
255
255
255
