P2
# CREATOR: GIMP PNM Filter Version 1.1
200 6
255
255
255
255
255
255
255
255
255
255
255
255
255
255
255
255
255
255
255
255
255
255
255
255
255
255
255
255
255
255
255
255
255
255
255
255
255
255
255
255
255
255
255
255
255
255
255
255
255
255
255
229
64
0
2
22
12
11
10
3
0
0
0
14
14
20
101
233
250
251
255
254
255
255
255
255
218
110
87
96
111
86
54
39
37
39
14
14
5
24
15
21
20
13
0
14
10
10
0
56
78
0
0
0
0
0
0
2
0
18
6
4
12
1
0
0
0
0
0
0
0
0
0
0
0
0
0
0
0
0
0
0
0
0
0
0
0
0
0
0
0
6
72
136
58
254
255
255
255
255
255
255
252
67
0
0
0
0
1
11
23
7
18
8
10
17
9
17
16
6
0
0
0
0
0
60
20
0
0
0
25
169
23
0
117
255
255
255
255
255
255
255
255
255
255
255
255
255
255
255
255
255
255
255
255
255
255
255
255
255
255
255
255
255
255
255
255
255
255
255
255
255
255
255
255
255
255
255
255
255
255
255
255
255
255
255
255
255
255
255
255
255
255
255
255
255
255
255
255
255
146
20
0
0
3
12
16
24
17
1
0
0
0
0
2
21
30
224
240
239
255
252
255
255
255
255
255
242
150
101
83
90
74
66
45
60
48
43
25
30
3
23
12
17
2
4
1
16
30
130
242
0
0
0
0
0
2
15
11
15
5
5
10
11
9
0
0
0
0
0
0
0
0
0
0
0
0
0
0
0
0
0
0
0
0
0
0
0
0
0
0
0
74
9
0
148
234
255
255
255
255
255
255
156
1
0
0
0
2
0
25
23
3
8
22
4
10
3
6
5
11
0
0
0
0
22
25
0
0
0
4
122
25
0
13
234
255
255
255
255
255
255
255
255
255
255
255
255
255
255
255
255
255
255
255
255
255
255
255
255
255
255
255
255
255
255
255
255
255
255
255
255
255
255
255
255
255
255
255
255
255
255
255
255
255
255
255
255
255
255
255
255
255
255
255
255
255
255
251
66
0
0
0
0
15
16
16
16
16
17
0
0
0
6
2
31
18
99
255
237
255
255
255
255
255
255
255
255
251
151
98
67
68
47
47
63
52
37
68
56
35
17
5
0
0
0
11
58
133
191
242
106
0
0
0
0
15
8
15
16
16
16
16
17
16
6
0
0
0
0
0
0
0
0
0
0
0
0
0
0
0
0
0
0
0
0
0
0
0
0
0
13
11
7
66
89
154
255
255
255
255
255
255
238
52
0
0
0
0
0
0
0
16
17
2
17
16
16
16
16
14
0
0
0
0
0
0
0
0
0
0
78
19
2
9
115
255
255
255
255
255
255
255
255
255
255
255
255
255
255
255
255
255
255
255
255
255
255
255
255
255
255
255
255
255
255
255
255
255
255
255
255
255
255
255
255
255
255
255
255
255
255
255
255
255
255
255
255
255
255
255
255
255
255
255
255
255
168
33
0
0
0
0
0
14
6
13
15
28
0
9
3
0
0
14
22
18
25
205
235
255
255
255
255
255
255
255
255
255
255
188
85
60
48
52
32
30
40
41
46
74
62
19
0
0
0
36
97
160
197
255
150
0
0
3
0
26
11
5
17
16
6
16
25
12
15
15
0
0
0
0
0
0
0
0
0
0
0
0
0
0
0
0
0
0
0
0
0
0
0
0
0
1
80
130
123
79
190
255
255
255
255
255
255
174
0
0
0
0
0
3
13
8
14
9
16
11
25
2
9
7
9
8
0
0
0
0
0
0
0
0
24
16
0
10
5
244
255
255
255
255
255
255
255
255
255
255
255
255
255
255
255
255
255
255
255
255
255
255
255
255
255
255
255
255
255
255
255
255
255
255
255
255
255
255
255
255
255
255
255
255
255
255
255
255
255
255
255
255
255
255
255
255
255
255
210
62
4
0
0
0
0
0
0
28
23
8
31
17
14
26
8
0
16
12
34
33
14
110
239
255
255
255
255
255
255
255
255
255
255
255
223
128
36
14
30
33
21
20
59
53
44
4
0
0
0
39
118
206
229
255
222
12
0
16
16
1
24
32
14
29
15
24
16
17
4
18
8
0
0
0
0
0
0
0
0
0
0
0
0
0
0
0
0
0
0
0
0
0
0
0
0
2
59
123
27
34
136
171
247
255
255
255
255
255
89
0
0
0
0
0
0
14
17
1
18
7
2
0
15
1
8
17
0
0
0
0
0
0
0
0
7
5
0
0
27
147
255
255
255
255
255
255
255
255
255
255
255
255
255
255
255
255
255
255
255
255
255
255
255
255
255
255
255
255
255
255
255
255
255
255
255
255
255
255
255
255
255
255
255
255
255
255
255
255
255
255
255
255
255
255
255
250
200
83
0
0
0
0
0
0
0
0
0
17
18
24
18
23
20
0
15
14
10
22
15
30
31
29
223
255
255
255
255
255
255
255
255
255
255
255
255
255
150
29
14
30
18
17
32
28
17
8
0
0
0
78
166
140
95
154
223
54
0
14
4
48
15
17
28
15
20
22
28
26
12
16
12
0
0
0
0
0
0
0
0
0
0
0
0
0
0
0
0
0
0
0
0
0
0
0
0
1
29
10
47
62
91
29
0
66
123
180
218
234
231
32
0
0
0
2
15
13
1
12
3
7
13
18
2
17
0
6
0
0
0
0
0
0
0
0
5
2
0
8
16
64
253
255
255
255
255
255
255
255
255
255
255
255
255
255
