P2
# CREATOR: GIMP PNM Filter Version 1.1
200 6
255
255
255
255
255
255
255
255
255
255
255
255
255
255
255
255
255
255
255
255
255
255
255
255
255
255
255
255
255
251
95
3
0
0
0
0
0
0
0
0
0
0
0
0
0
0
0
0
0
0
0
0
0
0
1
3
28
32
30
20
33
32
32
15
16
16
26
17
21
32
32
55
244
255
255
255
255
255
255
255
255
255
255
231
32
157
181
206
195
208
191
191
214
60
60
22
0
0
0
0
0
117
116
49
7
47
29
33
48
30
45
32
33
16
47
31
32
19
0
0
0
0
0
0
0
0
0
0
0
0
0
0
0
0
0
0
0
0
0
0
0
0
0
0
0
0
0
0
0
0
0
0
0
0
0
0
0
0
0
0
0
0
0
0
0
0
0
0
5
3
15
8
2
0
0
0
0
0
0
0
0
0
0
0
0
0
0
12
18
149
255
255
255
255
255
255
255
255
255
255
255
255
255
255
255
255
255
255
255
255
255
255
255
255
255
255
255
255
255
255
255
255
255
255
255
255
255
246
158
9
0
0
0
0
0
0
0
0
0
0
0
0
0
0
0
0
0
0
0
0
0
0
0
0
0
0
0
0
3
10
15
22
9
11
26
22
21
16
18
27
26
27
166
255
255
255
255
255
255
255
255
255
251
34
0
45
119
98
129
140
130
100
44
0
0
0
0
0
0
0
50
203
156
99
2
19
45
40
49
39
45
36
34
45
29
21
44
17
0
0
0
0
0
0
0
0
0
0
0
0
0
0
0
0
0
0
0
0
0
0
0
0
0
0
6
0
0
0
0
0
0
0
0
0
0
0
0
0
0
0
0
0
0
0
0
0
0
0
5
14
4
0
0
0
0
0
0
0
0
0
0
0
0
0
0
0
0
29
3
62
249
255
255
255
255
255
255
255
255
255
255
255
255
255
255
255
255
255
255
255
255
255
255
255
255
255
255
255
255
255
255
255
255
255
255
255
181
40
0
0
0
0
0
0
0
0
0
0
0
0
0
0
0
0
0
0
0
0
0
0
0
0
0
0
0
0
0
0
0
0
3
0
12
28
15
18
23
15
22
7
37
29
66
255
255
255
255
255
255
255
255
255
82
0
0
0
53
170
186
94
19
0
0
0
0
0
0
0
0
0
72
229
184
144
6
31
32
41
34
53
31
62
32
32
28
18
32
24
2
0
0
0
0
0
0
0
0
0
0
0
0
0
0
0
0
0
0
0
0
0
0
0
0
0
2
0
0
0
0
0
0
0
0
0
0
0
0
0
0
0
0
0
0
0
0
0
0
0
1
0
4
8
0
0
0
0
0
0
0
0
0
0
0
0
0
0
0
14
30
14
211
255
255
255
255
255
255
255
255
255
255
255
255
255
255
255
255
255
255
255
255
255
255
255
255
255
255
255
255
255
255
255
255
252
223
76
0
0
0
0
0
0
0
0
0
0
0
0
0
0
0
0
0
0
0
0
0
0
0
0
0
0
0
0
0
0
0
0
0
0
0
11
18
33
19
34
21
33
19
32
34
31
28
192
255
255
255
255
255
255
255
184
7
0
0
0
0
106
56
0
17
0
0
0
0
0
0
0
0
0
120
246
197
147
19
28
34
40
51
34
36
47
33
31
58
30
32
29
0
0
0
0
0
0
0
0
0
0
0
0
0
0
0
0
0
0
0
0
0
0
0
0
0
0
15
0
0
0
0
0
0
0
0
0
0
0
0
0
0
0
0
0
0
0
0
0
0
0
0
0
0
0
2
2
0
2
0
0
0
0
0
0
0
0
0
0
0
11
15
14
74
255
255
255
255
255
255
255
255
255
255
255
255
255
255
255
255
255
255
255
255
255
255
255
255
255
255
255
255
255
255
255
234
103
3
0
0
0
0
0
0
0
0
0
0
0
0
0
0
0
0
0
0
0
0
0
0
0
0
0
0
0
0
0
0
0
0
0
0
0
20
26
32
19
33
30
12
33
14
23
31
20
55
89
253
255
255
255
255
255
255
46
0
0
0
0
0
0
0
14
18
0
0
0
0
0
0
0
0
0
156
255
222
162
41
19
42
39
47
45
38
49
44
42
32
27
52
21
0
0
0
0
0
0
0
0
0
0
0
0
0
0
0
0
0
0
0
0
0
0
0
0
0
0
0
0
0
0
0
0
0
0
0
0
0
0
0
0
0
0
0
0
0
0
0
0
0
0
0
0
0
0
8
8
1
18
0
0
0
0
0
0
0
0
0
0
0
0
26
36
3
242
255
255
255
255
255
255
255
255
255
255
255
255
255
255
255
255
255
255
255
255
255
255
255
255
255
255
255
255
255
214
16
0
0
0
0
0
0
0
0
0
0
0
0
0
0
0
0
0
0
0
0
0
0
0
0
0
0
0
0
0
0
0
0
0
0
0
0
12
34
20
47
25
29
34
40
17
16
2
31
31
34
48
218
255
255
255
255
255
180
63
33
0
0
0
0
0
15
9
1
12
0
0
0
0
0
0
0
0
159
255
231
174
73
26
31
42
31
63
36
35
49
48
34
38
33
36
2
0
0
0
0
0
0
0
0
0
0
0
0
0
0
0
0
0
0
0
0
0
0
0
0
0
0
0
0
0
0
0
0
0
0
0
0
0
0
0
0
0
0
0
0
0
0
0
0
0
0
0
0
0
0
0
0
1
0
0
0
0
0
0
0
0
0
0
0
0
3
34
28
159
255
255
255
255
255
255
255
255
255
